<svg version="1.0" xmlns="http://www.w3.org/2000/svg" width="933.333" height="933.333" viewBox="0 0 700 700"><path d="M317 1.1c-38.7 3.6-79.5 15.8-121.5 36.4-55.4 27.1-100 64.2-133.4 111-50.8 71.3-71.4 162.2-58 256C17.4 497.1 67 579.2 141 631.1c35.7 25 74.4 41.5 83.5 35.5 8-5.2-3.2-20.8-31-43.1-22.2-17.9-34-31.1-39.6-44.4-4.7-11.3-5.9-18.7-7-46.1-2-50.3-7.2-70-23-86.2-12-12.4-17.6-26.5-18.6-46.3-.9-19.7 3.5-32.9 15.4-45.7 3.7-4.1 8.2-10.1 9.9-13.3 6.7-12.7 11.2-30.2 13.4-52 4.1-41.2 25-81.4 59.3-114.1C245.6 135 299.2 112 351 112c76.5 0 156.7 51.7 190.9 123.1 9.7 20.1 13.9 35.5 16.1 57.9 1.7 17.8 6.7 36.6 13 49 1.2 2.4 5.3 7.6 9 11.5 6.8 7.2 11.9 15.6 13.9 23.1 2.5 9.4 3.2 19.4 2.1 29-2.1 17.7-7.4 29.5-18.7 41.5-8.2 8.8-12.2 16-15.8 28.6-4.1 14.2-5.5 25.3-6.5 52.3-1 27.1-1.8 34.6-5.1 45-5.4 17.3-14.2 27.7-44.9 53.1-23.9 19.9-34.9 34.6-29.8 39.7 3.6 3.6 18.5-.1 36.9-9.4 28.5-14.3 49.5-29.7 75-55.3 29.2-29.3 51.3-59.9 69.8-96.9 35.3-70.4 46.6-141.7 33.5-211.3C659.7 129 504.3-1.2 341 .2c-8 0-18.8.5-24 .9z"/><path d="M333 156.5c-38 8.5-81.4 28-96.8 43.5-5 5.1-6.1 8.3-4 11.9 7.2 12.1 53 30.6 93.3 37.7 14.8 2.6 37.6 2.4 53-.4 45.3-8.5 91.5-28.9 91.5-40.4 0-4.1-3.7-8.8-11.3-14.2-27-19.2-85.7-40.9-109.6-40.5-3.1 0-10.3 1.1-16.1 2.4zM199 261.2c-5.5 2.9-10 22.6-10 43.2.1 25.2 5.5 28.2 54.5 30.6 26.3 1.3 187 1.3 214.7 0 35.2-1.6 47.5-4.8 52.1-13.3 2-3.8 2.2-5.5 2.1-19.7-.1-45-11.2-50.7-56.4-29.5-7.4 3.5-17.8 7.7-23 9.3-36.1 11.4-89.6 14.2-133.2 7.1-22.2-3.6-34.1-7.2-54.4-16.4-22.2-10-40.4-14.5-46.4-11.3zM220.5 380.1c-44.2.9-60.7 2.9-65.3 7.8-8.5 9-5.8 17.1 7.5 22.1 21.3 8 53.7 10 160.4 10h76.7l.5 34.2c.5 36.1 1.2 42.3 5.8 54.2 6.2 15.8 14.9 11.7 19.5-9.3.8-3.7 1.9-17.1 2.4-30.1 1-25.6 2.3-33.1 6.7-38.8 5-6.6 17.1-10.1 42.8-12.3 23.6-2 46.5-6.8 56.5-11.9 4.4-2.2 7.4-5.5 6.7-7.3-3.9-10.3-190.7-21.1-320.2-18.6z"/><path d="M189 493.7c0 17.5.5 35.7 1 40.3 4.4 35.7 20.4 52.8 57 61 25.7 5.7 54.8 7.4 116.7 6.7 60.4-.6 82.4-2.9 105.1-10.6 21.7-7.5 34.5-21.1 40.1-42.6 3.2-12.2 4.7-35.7 3.3-51.2-1.9-20.8-5.6-29.8-13.9-33.5-9.3-4.1-17.8-.3-23.1 10.3-3.1 6.1-3.5 8-4.7 22-1.6 17.4-3.7 25.4-9.2 34.8-7.1 11.9-20.8 21.9-35.1 25.6-7.5 2-23.1 2-30.7 0-19.9-5.1-36.6-20.3-44-39.9-1.2-3.3-3.3-11-4.4-17-4-19.9-7.6-26.9-16.3-31.4-9.5-4.9-15.8-5.4-81-5.9l-60.8-.5v31.9zM321 645c-21 .8-29.8 2-37.2 5.2-6.2 2.7-8.2 5.8-8.2 12.9.2 20.8 26.2 34.8 68.4 36.6 32.1 1.4 62.5-5.9 75.7-18 6.4-5.8 8.6-10.7 8.1-17.4-1.1-13.3-14-17.7-56.8-19.3-12.9-.5-25.1-.9-27-.8-1.9.1-12.3.4-23 .8z"/></svg>