<?xml version="1.0" standalone="no"?>
<!DOCTYPE svg PUBLIC "-//W3C//DTD SVG 20010904//EN"
 "http://www.w3.org/TR/2001/REC-SVG-20010904/DTD/svg10.dtd">
<svg version="1.0" xmlns="http://www.w3.org/2000/svg"
 width="700.000000pt" height="700.000000pt" viewBox="0 0 700.000000 700.000000"
 preserveAspectRatio="xMidYMid meet">
<metadata>
Created by potrace 1.14, written by Peter Selinger 2001-2017
</metadata>
<g transform="translate(0.000000,700.000000) scale(0.100000,-0.100000)"
fill="#000000" stroke="none">
<path d="M3170 6989 c-387 -36 -795 -158 -1215 -364 -554 -271 -1000 -642
-1334 -1110 -508 -713 -714 -1622 -580 -2560 133 -926 629 -1747 1369 -2266
357 -250 744 -415 835 -355 80 52 -32 208 -310 431 -222 179 -340 311 -396
444 -47 113 -59 187 -70 461 -20 503 -72 700 -230 862 -120 124 -176 265 -186
463 -9 197 35 329 154 457 37 41 82 101 99 133 67 127 112 302 134 520 41 412
250 814 593 1141 423 404 959 634 1477 634 765 0 1567 -517 1909 -1231 97
-201 139 -355 161 -579 17 -178 67 -366 130 -490 12 -24 53 -76 90 -115 68
-72 119 -156 139 -231 25 -94 32 -194 21 -290 -21 -177 -74 -295 -187 -415
-82 -88 -122 -160 -158 -286 -41 -142 -55 -253 -65 -523 -10 -271 -18 -346
-51 -450 -54 -173 -142 -277 -449 -531 -239 -199 -349 -346 -298 -397 36 -36
185 1 369 94 285 143 495 297 750 553 292 293 513 599 698 969 353 704 466
1417 335 2113 -307 1639 -1861 2941 -3494 2927 -80 0 -188 -5 -240 -9z"/>
<path d="M3330 5435 c-380 -85 -814 -280 -968 -435 -50 -51 -61 -83 -40 -119
72 -121 530 -306 933 -377 148 -26 376 -24 530 4 453 85 915 289 915 404 0 41
-37 88 -113 142 -270 192 -857 409 -1096 405 -31 0 -103 -11 -161 -24z"/>
<path d="M1990 4388 c-55 -29 -100 -226 -100 -432 1 -252 55 -282 545 -306
263 -13 1870 -13 2147 0 352 16 475 48 521 133 20 38 22 55 21 197 -1 450
-112 507 -564 295 -74 -35 -178 -77 -230 -93 -361 -114 -896 -142 -1332 -71
-222 36 -341 72 -544 164 -222 100 -404 145 -464 113z"/>
<path d="M2205 3199 c-442 -9 -607 -29 -653 -78 -85 -90 -58 -171 75 -221 213
-80 537 -100 1604 -100 l767 0 5 -342 c5 -361 12 -423 58 -542 62 -158 149
-117 195 93 8 37 19 171 24 301 10 256 23 331 67 388 50 66 171 101 428 123
236 20 465 68 565 119 44 22 74 55 67 73 -39 103 -1907 211 -3202 186z"/>
<path d="M1890 2063 c0 -175 5 -357 10 -403 44 -357 204 -528 570 -610 257
-57 548 -74 1167 -67 604 6 824 29 1051 106 217 75 345 211 401 426 32 122 47
357 33 512 -19 208 -56 298 -139 335 -93 41 -178 3 -231 -103 -31 -61 -35 -80
-47 -220 -16 -174 -37 -254 -92 -348 -71 -119 -208 -219 -351 -256 -75 -20
-231 -20 -307 0 -199 51 -366 203 -440 399 -12 33 -33 110 -44 170 -40 199
-76 269 -163 314 -95 49 -158 54 -810 59 l-608 5 0 -319z"/>
<path d="M3210 550 c-210 -8 -298 -20 -372 -52 -62 -27 -82 -58 -82 -129 2
-208 262 -348 684 -366 321 -14 625 59 757 180 64 58 86 107 81 174 -11 133
-140 177 -568 193 -129 5 -251 9 -270 8 -19 -1 -123 -4 -230 -8z"/>
</g>
</svg>
